<?xml version="1.0" encoding="iso-8859-1"?>
<!-- Generator: Adobe Illustrator 19.0.0, SVG Export Plug-In . SVG Version: 6.00 Build 0)  -->
<svg version="1.1" id="Capa_1" xmlns="http://www.w3.org/2000/svg" xmlns:xlink="http://www.w3.org/1999/xlink" x="0px" y="0px"
	 viewBox="0 0 323.881 323.881" style="enable-background:new 0 0 323.881 323.881;" xml:space="preserve">
<path style="fill:#F16A73;" d="M41.505,91.751c-16.4,1.2-30.8-11.2-32-28c-1.2-16.4,11.2-30.8,28-32c1.6,0,2.8,0,4.4,0
	c16.4,1.2,29.2,15.6,28,32C68.305,78.951,56.705,90.951,41.505,91.751z"/>
<path style="fill:#C1D963;" d="M161.905,236.551c-10.4,0-18.4-8.4-18.4-18.4c0-10.4,8.4-18.4,18.4-18.4l0,0
	c10.4,0,18.4,8.4,18.4,18.4S171.905,236.551,161.905,236.551z"/>
<path style="fill:#59C4C6;" d="M267.505,164.551c-13.2,0-23.6-10.8-23.6-23.6s10.8-23.6,23.6-23.6c6.4,0,12.4,2.4,16.8,6.8
	c4.4,4.4,7.2,10.8,6.8,17.2C291.105,153.751,280.305,164.551,267.505,164.551L267.505,164.551z"/>
<path style="fill:#603416;" d="M59.905,43.351c-10-10.4-26.8-10.4-36.8,0s-10.4,26.8,0,36.8c10,10.4,26.8,10.4,36.8,0
	c4.8-4.8,7.6-11.6,7.6-18.4C67.505,54.951,64.705,48.151,59.905,43.351z M172.305,207.751c-5.6-5.6-14.8-5.6-20.4,0
	c-5.6,5.6-5.6,14.8,0,20.4s14.8,5.6,20.4,0c2.8-2.8,4.4-6.4,4.4-10.4C176.305,214.151,174.705,210.551,172.305,207.751z
	 M161.905,192.951c9.6,0,18.4,5.6,22.8,14.4c25.2-12.4,35.6-43.2,23.2-68.4s-43.2-35.6-68.4-23.2c-12.8,6.4-22.4,17.6-26.4,31.2
	c-1.2,2.8-4,4-6.8,2.8c-2.4-0.8-3.6-3.6-3.2-6c10-32.4,44-50.8,76.8-41.2s50.8,44,41.2,76.8c-5.2,17.2-17.6,31.2-34,38.4l0,0
	c-0.4,13.6-12,24.4-26,24c-13.2-0.4-23.6-10.8-24-24l0,0c-16.8-7.2-29.2-21.6-34-39.2c-0.8-2.8,0.8-5.6,3.6-6.4s5.6,0.8,6.4,3.6
	c4,14,13.6,25.2,26.4,31.6C143.505,198.951,152.305,193.351,161.905,192.951z M281.505,126.951c-7.6-7.6-20-7.6-28,0
	c-7.6,7.6-7.6,20,0,28c7.6,7.6,20,7.6,27.6,0l0,0C289.105,147.351,289.105,134.551,281.505,126.951L281.505,126.951z
	 M267.505,110.551c16.8,0,30,13.6,30,30c0,8-3.2,15.6-8.8,21.2l0,0c-4,4-8.8,6.8-14.4,8c-4.4,62-58.8,108.8-120.8,104
	c-62-4.4-108.8-58.8-104-120.8c4-54,45.6-97.2,99.2-103.6c2.8-0.4,5.6,1.6,6,4.4c0.4,2.8-1.6,5.6-4.4,6h-0.4
	c-56,7.2-96.4,58-89.6,114c6.4,56,57.6,96.4,113.6,89.6c48-5.6,85.6-44.4,90-92.8c-16.4-2-28.4-16.8-26.4-33.2
	c0.8-6.8,3.6-13.2,8.4-18l0,0c2-2,4-3.6,6.4-4.8c-14.8-28.4-41.6-48-73.2-53.6c-2.8-0.4-4.8-2.8-4.4-6s2.8-4.8,6-4.4h0.4
	c35.2,6,65.6,28.4,81.6,60.4C264.305,110.551,265.905,110.551,267.505,110.551z M279.505,256.951c2-2,5.2-2,7.2,0
	c1.6,1.6,2,4.4,0.8,6.4c-15.2,18.8-34.4,34-56,44.4l0,0c-80.8,38.4-177.2,4.4-215.6-76c-21.6-45.2-21.2-97.6,1.2-142.4l-1.6-1.6
	c-14-14.4-14-37.6,0.4-51.6c13.2-12.8,33.6-14,48-2.8c71.2-54,172.8-40.4,226.8,30.8c38.4,50.4,44,118.4,14,174
	c-1.2,2.8-4.4,3.6-6.8,2.4c-2.8-1.2-3.6-4.4-2.4-6.8c0,0,0-0.4,0.4-0.4c39.2-74,11.2-165.6-62.8-204.4c-52-28-115.2-23.2-162,12
	c11.6,16.4,7.6,39.2-8.8,50.8c-10.8,7.6-24.4,8.8-36.4,3.2c-36.8,74.8-6,165.6,68.8,202.8c41.6,20.4,90.4,20.8,132.4,0.8l0,0
	C247.505,288.551,265.505,274.551,279.505,256.951z"/>
<g>
</g>
<g>
</g>
<g>
</g>
<g>
</g>
<g>
</g>
<g>
</g>
<g>
</g>
<g>
</g>
<g>
</g>
<g>
</g>
<g>
</g>
<g>
</g>
<g>
</g>
<g>
</g>
<g>
</g>
</svg>
